<svg xmlns="http://www.w3.org/2000/svg" viewBox="0 0 900 1200" fill="none">
  <defs>
    <filter id="shadow" x="-30%" y="-30%" width="160%" height="160%">
      <feDropShadow dx="0" dy="40" stdDeviation="34" flood-color="#0f172a" flood-opacity="0.20"/>
    </filter>
    <linearGradient id="metal" x1="180" y1="220" x2="720" y2="940" gradientUnits="userSpaceOnUse">
      <stop stop-color="#f8fafc"/>
      <stop offset="0.42" stop-color="#9ca3af"/>
      <stop offset="0.72" stop-color="#f1f5f9"/>
      <stop offset="1" stop-color="#334155"/>
    </linearGradient>
    <linearGradient id="dark" x1="300" y1="260" x2="650" y2="920" gradientUnits="userSpaceOnUse">
      <stop stop-color="#475569"/>
      <stop offset="0.55" stop-color="#111827"/>
      <stop offset="1" stop-color="#020617"/>
    </linearGradient>
    <radialGradient id="glow" cx="50%" cy="50%" r="50%">
      <stop stop-color="#93c5fd" stop-opacity="0.35"/>
      <stop offset="1" stop-color="#93c5fd" stop-opacity="0"/>
    </radialGradient>
  </defs>
  <rect width="900" height="1200" fill="transparent"/>
  <ellipse cx="450" cy="910" rx="260" ry="52" fill="#020617" opacity="0.12"/>
  <circle cx="450" cy="600" r="360" fill="url(#glow)" opacity="0.55"/>
  <g filter="url(#shadow)">
    <path d="M282 545C272 385 342 270 450 270C558 270 628 385 618 545" stroke="url(#metal)" stroke-width="62" stroke-linecap="round"/>
    <path d="M267 565C232 565 205 593 205 628V780C205 838 252 885 310 885H350C380 885 404 861 404 831V620C404 590 380 565 350 565H267Z" fill="url(#dark)"/>
    <path d="M633 565C668 565 695 593 695 628V780C695 838 648 885 590 885H550C520 885 496 861 496 831V620C496 590 520 565 550 565H633Z" fill="url(#dark)"/>
    <path d="M250 620C302 600 355 610 390 648" stroke="#f8fafc" stroke-opacity="0.22" stroke-width="26" stroke-linecap="round"/>
    <path d="M650 620C598 600 545 610 510 648" stroke="#f8fafc" stroke-opacity="0.22" stroke-width="26" stroke-linecap="round"/>
    <path d="M306 595H344C366 595 384 613 384 635V812C384 834 366 852 344 852H306C261 852 225 816 225 771V676C225 631 261 595 306 595Z" stroke="#94a3b8" stroke-opacity="0.55" stroke-width="8"/>
    <path d="M594 595H556C534 595 516 613 516 635V812C516 834 534 852 556 852H594C639 852 675 816 675 771V676C675 631 639 595 594 595Z" stroke="#94a3b8" stroke-opacity="0.55" stroke-width="8"/>
    <path d="M280 545C284 402 344 302 450 302C556 302 616 402 620 545" stroke="#ffffff" stroke-opacity="0.28" stroke-width="10" stroke-linecap="round"/>
  </g>
</svg>