<svg xmlns="http://www.w3.org/2000/svg" viewBox="0 0 420 360" fill="none">
  <defs>
    <filter id="heroShadow" x="-28%" y="-24%" width="156%" height="158%">
      <feDropShadow dx="0" dy="26" stdDeviation="18" flood-color="#0f172a" flood-opacity="0.22"/>
      <feDropShadow dx="0" dy="6" stdDeviation="5" flood-color="#020617" flood-opacity="0.18"/>
    </filter>
    <filter id="softBlur" x="-20%" y="-20%" width="140%" height="140%">
      <feGaussianBlur stdDeviation="0.65"/>
    </filter>

    <linearGradient id="screenGlow" x1="94" y1="50" x2="315" y2="223" gradientUnits="userSpaceOnUse">
      <stop offset="0" stop-color="#020617"/>
      <stop offset="0.18" stop-color="#0f2a6b"/>
      <stop offset="0.38" stop-color="#3730a3"/>
      <stop offset="0.56" stop-color="#7c3aed"/>
      <stop offset="0.75" stop-color="#ec4899"/>
      <stop offset="1" stop-color="#38bdf8"/>
    </linearGradient>
    <radialGradient id="screenBloom" cx="62%" cy="50%" r="70%">
      <stop offset="0" stop-color="#f0abfc" stop-opacity="0.45"/>
      <stop offset="0.42" stop-color="#60a5fa" stop-opacity="0.20"/>
      <stop offset="1" stop-color="#020617" stop-opacity="0"/>
    </radialGradient>
    <linearGradient id="rim" x1="64" y1="36" x2="346" y2="236" gradientUnits="userSpaceOnUse">
      <stop offset="0" stop-color="#1e293b"/>
      <stop offset="0.18" stop-color="#f8fafc"/>
      <stop offset="0.39" stop-color="#94a3b8"/>
      <stop offset="0.67" stop-color="#e2e8f0"/>
      <stop offset="1" stop-color="#0f172a"/>
    </linearGradient>
    <linearGradient id="metal" x1="35" y1="224" x2="390" y2="312" gradientUnits="userSpaceOnUse">
      <stop offset="0" stop-color="#ffffff"/>
      <stop offset="0.22" stop-color="#e5e7eb"/>
      <stop offset="0.48" stop-color="#cbd5e1"/>
      <stop offset="0.72" stop-color="#f8fafc"/>
      <stop offset="1" stop-color="#94a3b8"/>
    </linearGradient>
    <linearGradient id="frontEdge" x1="28" y1="284" x2="392" y2="322" gradientUnits="userSpaceOnUse">
      <stop offset="0" stop-color="#cbd5e1"/>
      <stop offset="0.45" stop-color="#64748b"/>
      <stop offset="0.75" stop-color="#e2e8f0"/>
      <stop offset="1" stop-color="#475569"/>
    </linearGradient>
    <linearGradient id="keyDeck" x1="70" y1="236" x2="335" y2="270" gradientUnits="userSpaceOnUse">
      <stop offset="0" stop-color="#f8fafc"/>
      <stop offset="0.55" stop-color="#dbe3ee"/>
      <stop offset="1" stop-color="#cbd5e1"/>
    </linearGradient>
  </defs>

  <ellipse cx="212" cy="304" rx="146" ry="20" fill="#020617" opacity="0.13" filter="url(#softBlur)"/>

  <g filter="url(#heroShadow)">
    <path d="M92 34H323C342 34 356 49 356 69V213C356 232 342 247 323 247H91C72 247 58 232 58 213V69C58 49 73 34 92 34Z" fill="url(#rim)"/>
    <path d="M98 48H316C330 48 341 60 341 75V204C341 219 330 231 315 231H98C83 231 73 219 73 204V75C73 60 83 48 98 48Z" fill="#020617"/>
    <path d="M108 61H306C318 61 326 70 326 82V195C326 207 318 216 305 216H108C96 216 87 207 87 195V82C87 70 96 61 108 61Z" fill="url(#screenGlow)"/>
    <path d="M108 61H306C318 61 326 70 326 82V195C326 207 318 216 305 216H108C96 216 87 207 87 195V82C87 70 96 61 108 61Z" fill="url(#screenBloom)"/>

    <path d="M105 200C158 116 214 79 306 67C270 105 270 159 329 216H108Z" fill="#ffffff" opacity="0.17"/>
    <path d="M119 66C182 80 228 128 256 214" stroke="#ffffff" stroke-width="19" stroke-linecap="round" opacity="0.14"/>
    <path d="M94 68L324 214" stroke="#ffffff" stroke-width="1.2" opacity="0.20"/>
    <path d="M318 76C316 129 318 174 334 221" stroke="#93c5fd" stroke-width="10" opacity="0.13" stroke-linecap="round"/>
    <path d="M90 220C131 232 280 234 324 219" stroke="#ffffff" stroke-width="2" opacity="0.22"/>

    <path d="M43 235H357L398 291C404 300 397 310 381 310H39C23 310 16 300 22 291L43 235Z" fill="url(#metal)"/>
    <path d="M64 249H338L360 280H43Z" fill="url(#keyDeck)" opacity="0.98"/>
    <path d="M43 280H360L397 292C389 305 370 314 337 314H79C48 314 29 305 22 292Z" fill="url(#frontEdge)" opacity="0.88"/>

    <g opacity="0.84">
      <rect x="72" y="252" width="12" height="4" rx="1" fill="#1f2937"/>
      <rect x="90" y="252" width="12" height="4" rx="1" fill="#1f2937"/>
      <rect x="108" y="252" width="12" height="4" rx="1" fill="#1f2937"/>
      <rect x="126" y="252" width="12" height="4" rx="1" fill="#1f2937"/>
      <rect x="144" y="252" width="12" height="4" rx="1" fill="#1f2937"/>
      <rect x="162" y="252" width="12" height="4" rx="1" fill="#1f2937"/>
      <rect x="180" y="252" width="12" height="4" rx="1" fill="#1f2937"/>
      <rect x="198" y="252" width="12" height="4" rx="1" fill="#1f2937"/>
      <rect x="216" y="252" width="12" height="4" rx="1" fill="#1f2937"/>
      <rect x="234" y="252" width="12" height="4" rx="1" fill="#1f2937"/>
      <rect x="252" y="252" width="12" height="4" rx="1" fill="#1f2937"/>
      <rect x="270" y="252" width="12" height="4" rx="1" fill="#1f2937"/>
      <rect x="288" y="252" width="12" height="4" rx="1" fill="#1f2937"/>
      <rect x="306" y="252" width="12" height="4" rx="1" fill="#1f2937"/>

      <rect x="75" y="260" width="14" height="4" rx="1" fill="#1f2937"/>
      <rect x="94" y="260" width="14" height="4" rx="1" fill="#1f2937"/>
      <rect x="113" y="260" width="14" height="4" rx="1" fill="#1f2937"/>
      <rect x="132" y="260" width="14" height="4" rx="1" fill="#1f2937"/>
      <rect x="151" y="260" width="14" height="4" rx="1" fill="#1f2937"/>
      <rect x="170" y="260" width="14" height="4" rx="1" fill="#1f2937"/>
      <rect x="189" y="260" width="14" height="4" rx="1" fill="#1f2937"/>
      <rect x="208" y="260" width="14" height="4" rx="1" fill="#1f2937"/>
      <rect x="227" y="260" width="14" height="4" rx="1" fill="#1f2937"/>
      <rect x="246" y="260" width="14" height="4" rx="1" fill="#1f2937"/>
      <rect x="265" y="260" width="14" height="4" rx="1" fill="#1f2937"/>
      <rect x="284" y="260" width="14" height="4" rx="1" fill="#1f2937"/>
      <rect x="303" y="260" width="14" height="4" rx="1" fill="#1f2937"/>

      <rect x="80" y="268" width="16" height="4" rx="1" fill="#1f2937"/>
      <rect x="102" y="268" width="16" height="4" rx="1" fill="#1f2937"/>
      <rect x="124" y="268" width="16" height="4" rx="1" fill="#1f2937"/>
      <rect x="146" y="268" width="16" height="4" rx="1" fill="#1f2937"/>
      <rect x="254" y="268" width="16" height="4" rx="1" fill="#1f2937"/>
      <rect x="276" y="268" width="16" height="4" rx="1" fill="#1f2937"/>
      <rect x="298" y="268" width="16" height="4" rx="1" fill="#1f2937"/>
    </g>

    <rect x="168" y="264" width="78" height="22" rx="6" fill="#dbe3ee" stroke="#f8fafc"/>
    <path d="M64 245C142 222 271 228 348 254" stroke="#ffffff" stroke-width="11" stroke-linecap="round" opacity="0.32"/>
    <path d="M55 292H390" stroke="#ffffff" stroke-opacity="0.35" stroke-width="1"/>
  </g>
</svg>
