<svg xmlns="http://www.w3.org/2000/svg" viewBox="0 0 360 330" fill="none">
  <defs>
    <filter id="softShadow" x="-25%" y="-20%" width="150%" height="150%">
      <feDropShadow dx="0" dy="24" stdDeviation="16" flood-color="#0f172a" flood-opacity="0.20"/>
    </filter>
    <linearGradient id="screen" x1="82" y1="56" x2="282" y2="214" gradientUnits="userSpaceOnUse">
      <stop offset="0" stop-color="#020617"/>
      <stop offset="0.18" stop-color="#172554"/>
      <stop offset="0.36" stop-color="#4338ca"/>
      <stop offset="0.56" stop-color="#a855f7"/>
      <stop offset="0.74" stop-color="#ec4899"/>
      <stop offset="1" stop-color="#22d3ee"/>
    </linearGradient>
    <linearGradient id="lidRim" x1="56" y1="42" x2="310" y2="232" gradientUnits="userSpaceOnUse">
      <stop offset="0" stop-color="#334155"/>
      <stop offset="0.28" stop-color="#f8fafc"/>
      <stop offset="0.55" stop-color="#64748b"/>
      <stop offset="1" stop-color="#111827"/>
    </linearGradient>
    <linearGradient id="body" x1="26" y1="214" x2="334" y2="292" gradientUnits="userSpaceOnUse">
      <stop offset="0" stop-color="#ffffff"/>
      <stop offset="0.28" stop-color="#e5e7eb"/>
      <stop offset="0.55" stop-color="#cbd5e1"/>
      <stop offset="0.75" stop-color="#f8fafc"/>
      <stop offset="1" stop-color="#94a3b8"/>
    </linearGradient>
    <linearGradient id="keyboard" x1="62" y1="225" x2="300" y2="260" gradientUnits="userSpaceOnUse">
      <stop offset="0" stop-color="#f8fafc"/>
      <stop offset="1" stop-color="#cbd5e1"/>
    </linearGradient>
    <linearGradient id="trackpad" x1="145" y1="244" x2="215" y2="265" gradientUnits="userSpaceOnUse">
      <stop offset="0" stop-color="#f8fafc"/>
      <stop offset="1" stop-color="#cbd5e1"/>
    </linearGradient>
  </defs>

  <ellipse cx="180" cy="286" rx="126" ry="18" fill="#020617" opacity="0.12"/>

  <g filter="url(#softShadow)">
    <path d="M86 38H274C291 38 304 51 304 68V204C304 221 291 234 274 234H86C69 234 56 221 56 204V68C56 51 69 38 86 38Z" fill="url(#lidRim)"/>
    <path d="M91 50H269C281 50 291 60 291 73V193C291 206 281 216 268 216H91C78 216 69 206 69 193V73C69 60 78 50 91 50Z" fill="#020617"/>
    <path d="M99 60H260C270 60 278 68 278 79V184C278 195 270 203 259 203H99C88 203 80 195 80 184V79C80 68 88 60 99 60Z" fill="url(#screen)"/>
    <path d="M94 192C139 112 187 77 259 65C231 98 231 153 283 203H96Z" fill="#ffffff" opacity="0.18"/>
    <path d="M112 64C170 78 207 118 230 201" stroke="#ffffff" stroke-width="17" stroke-linecap="round" opacity="0.15"/>
    <path d="M88 62L278 202" stroke="#ffffff" stroke-width="1.2" opacity="0.18"/>
    <path d="M275 70C273 123 274 166 287 209" stroke="#93c5fd" stroke-width="10" opacity="0.12" stroke-linecap="round"/>

    <path d="M40 218H304L340 266C346 274 339 283 325 283H35C21 283 15 274 20 266L40 218Z" fill="url(#body)"/>
    <path d="M60 229H284L302 256H42Z" fill="url(#keyboard)" opacity="0.98"/>

    <g opacity="0.82">
      <rect x="66" y="230" width="11" height="4" rx="1" fill="#1f2937"/>
      <rect x="82" y="230" width="11" height="4" rx="1" fill="#1f2937"/>
      <rect x="98" y="230" width="11" height="4" rx="1" fill="#1f2937"/>
      <rect x="114" y="230" width="11" height="4" rx="1" fill="#1f2937"/>
      <rect x="130" y="230" width="11" height="4" rx="1" fill="#1f2937"/>
      <rect x="146" y="230" width="11" height="4" rx="1" fill="#1f2937"/>
      <rect x="162" y="230" width="11" height="4" rx="1" fill="#1f2937"/>
      <rect x="178" y="230" width="11" height="4" rx="1" fill="#1f2937"/>
      <rect x="194" y="230" width="11" height="4" rx="1" fill="#1f2937"/>
      <rect x="210" y="230" width="11" height="4" rx="1" fill="#1f2937"/>
      <rect x="226" y="230" width="11" height="4" rx="1" fill="#1f2937"/>
      <rect x="242" y="230" width="11" height="4" rx="1" fill="#1f2937"/>
      <rect x="258" y="230" width="11" height="4" rx="1" fill="#1f2937"/>
      <rect x="274" y="230" width="11" height="4" rx="1" fill="#1f2937"/>

      <rect x="68" y="238" width="13" height="4" rx="1" fill="#1f2937"/>
      <rect x="86" y="238" width="13" height="4" rx="1" fill="#1f2937"/>
      <rect x="104" y="238" width="13" height="4" rx="1" fill="#1f2937"/>
      <rect x="122" y="238" width="13" height="4" rx="1" fill="#1f2937"/>
      <rect x="140" y="238" width="13" height="4" rx="1" fill="#1f2937"/>
      <rect x="158" y="238" width="13" height="4" rx="1" fill="#1f2937"/>
      <rect x="176" y="238" width="13" height="4" rx="1" fill="#1f2937"/>
      <rect x="194" y="238" width="13" height="4" rx="1" fill="#1f2937"/>
      <rect x="212" y="238" width="13" height="4" rx="1" fill="#1f2937"/>
      <rect x="230" y="238" width="13" height="4" rx="1" fill="#1f2937"/>
      <rect x="248" y="238" width="13" height="4" rx="1" fill="#1f2937"/>
      <rect x="266" y="238" width="13" height="4" rx="1" fill="#1f2937"/>

      <rect x="72" y="246" width="15" height="4" rx="1" fill="#1f2937"/>
      <rect x="92" y="246" width="15" height="4" rx="1" fill="#1f2937"/>
      <rect x="112" y="246" width="15" height="4" rx="1" fill="#1f2937"/>
      <rect x="132" y="246" width="15" height="4" rx="1" fill="#1f2937"/>
      <rect x="218" y="246" width="15" height="4" rx="1" fill="#1f2937"/>
      <rect x="238" y="246" width="15" height="4" rx="1" fill="#1f2937"/>
      <rect x="258" y="246" width="15" height="4" rx="1" fill="#1f2937"/>
    </g>

    <rect x="145" y="244" width="70" height="21" rx="6" fill="url(#trackpad)" stroke="#f8fafc"/>
    <path d="M20 266H340C332 280 314 289 286 289H74C46 289 28 280 20 266Z" fill="#64748b" opacity="0.32"/>
    <path d="M66 226C130 209 226 213 294 236" stroke="#ffffff" stroke-width="10" stroke-linecap="round" opacity="0.36"/>
  </g>
</svg>
